<svg width="179" height="58" viewBox="0 0 179 58" fill="none" xmlns="http://www.w3.org/2000/svg">
<path d="M97.281 37.4944C97.281 38.4506 97.2064 39.4067 97.0615 40.3628H68.6665C69.2959 42.3777 70.4554 43.9986 72.1532 45.2215C73.8469 46.4443 75.7601 47.0558 77.8886 47.0558C80.8411 47.0558 83.2843 45.9273 85.2223 43.6744L91.1771 51.5163C87.4502 55.0208 83.0193 56.7689 77.8886 56.7689C72.4183 56.7689 67.8052 54.9141 64.0534 51.2045C60.3016 47.4948 58.4257 42.9317 58.4257 37.519C58.4257 32.1064 60.314 27.6171 64.0907 23.9075C67.8673 20.1978 72.4638 18.3389 77.8886 18.3389C83.3133 18.3389 87.8974 20.1937 91.6492 23.8993C95.401 27.6048 97.2768 32.1351 97.2768 37.4903L97.281 37.4944ZM86.3155 33.0954C84.5225 29.7386 81.7149 28.0562 77.8927 28.0562C74.0705 28.0562 71.1884 29.7345 69.3953 33.0954H86.3155Z" fill="white"/>
<path d="M61.5729 51.2045C59.8296 49.481 58.4961 47.5687 57.5603 45.4759C55.9204 46.8013 53.9741 47.4661 51.7256 47.4661C49.0629 47.4661 46.7895 46.5346 44.9011 44.6716C43.0128 42.8085 42.0687 40.5598 42.0687 37.9335C42.0687 35.3072 43.0128 33.0708 44.9011 31.2323C46.7895 29.3939 49.0629 28.4706 51.7256 28.4706C53.854 28.4706 55.7175 29.0492 57.3201 30.2106C58.2642 27.9002 59.6929 25.7992 61.6102 23.9157C62.1237 23.4109 62.6537 22.9431 63.2003 22.5081C59.8544 20.0091 56.0281 18.7616 51.7297 18.7616C46.3091 18.7616 41.7084 20.6164 37.9318 24.3301C34.1552 28.0398 32.2669 32.5783 32.2669 37.9417C32.2669 43.3051 34.1428 47.9134 37.8945 51.6271C41.6463 55.3368 46.2553 57.1916 51.7297 57.1916C56.2641 57.1916 60.2561 55.8128 63.718 53.0593C62.9767 52.5053 62.2645 51.8939 61.5771 51.2168L61.5729 51.2045Z" fill="white"/>
<path d="M29.7823 37.519C29.7823 32.1557 31.6706 27.6171 35.4472 23.9075C36.5156 22.8569 37.6544 21.9624 38.8511 21.2073V0H29.0493V22.0198C26.0967 20.3907 22.8999 19.5741 19.4628 19.5741C14.0422 19.5741 9.44154 21.4289 5.66492 25.1426C1.88831 28.8523 0 33.3867 0 38.7501C0 44.1135 1.87589 48.7218 5.62766 52.4355C9.37943 56.1452 13.9884 58 19.4628 58C24.9373 58 29.4717 56.1329 33.2235 52.3945C33.8032 51.8159 34.3332 51.2168 34.826 50.5971C31.4635 46.9983 29.7823 42.6403 29.7823 37.519ZM26.2541 45.4882C24.3906 47.3512 22.1255 48.2827 19.4628 48.2827C16.8001 48.2827 14.5267 47.3512 12.6384 45.4882C10.7501 43.6252 9.80595 41.3764 9.80595 38.7501C9.80595 36.1238 10.7501 33.8874 12.6384 32.049C14.5267 30.2106 16.8001 29.2873 19.4628 29.2873C22.1255 29.2873 24.3285 30.2188 26.2168 32.0818C28.1051 33.9448 29.0493 36.169 29.0493 38.7501C29.0493 41.3313 28.1176 43.6252 26.2541 45.4882Z" fill="white"/>
<path d="M100.42 54.9839C102.936 54.9839 104.975 52.9629 104.975 50.4699C104.975 47.977 102.936 45.956 100.42 45.956C97.9042 45.956 95.8648 47.977 95.8648 50.4699C95.8648 52.9629 97.9042 54.9839 100.42 54.9839Z" fill="#54CEEA"/>
<path d="M107.857 25.2575H113.592C116.176 25.2575 118.073 25.6925 119.286 26.5625C120.5 27.4324 121.104 28.7456 121.104 30.5019C121.104 31.7002 120.736 32.7014 119.995 33.5016C119.257 34.3018 118.177 34.8148 116.756 35.0405V35.1266C118.425 35.3729 119.655 35.894 120.442 36.6942C121.229 37.4944 121.622 38.6065 121.622 40.0345C121.622 41.9427 120.984 43.4118 119.705 44.4418C118.425 45.4718 116.615 45.9888 114.267 45.9888H107.857V25.2575ZM109.315 34.4865H113.92C115.882 34.4865 117.311 34.1623 118.206 33.5139C119.096 32.8656 119.543 31.852 119.543 30.4732C119.543 29.0944 119.038 28.0931 118.036 27.4694C117.03 26.8456 115.53 26.5338 113.539 26.5338H109.319V34.4865H109.315ZM109.315 35.7627V44.7085H114.234C118.106 44.7085 120.044 43.1491 120.044 40.0304C120.044 37.1866 118.003 35.7627 113.92 35.7627H109.315Z" fill="white"/>
<path d="M127.8 38.668L124.881 45.9847H123.266L131.676 25.1755H132.608L140.849 45.9847H139.205L136.302 38.668H127.8ZM128.33 37.3631H135.813L132.968 29.8905C132.728 29.3037 132.442 28.4912 132.111 27.453C131.854 28.3598 131.573 29.1806 131.266 29.9192L128.335 37.3631H128.33Z" fill="white"/>
<path d="M159.015 45.9847H157.541L145.151 27.5843H145.035C145.151 29.7756 145.209 31.4293 145.209 32.5455V45.9847H143.805V25.2616H145.263L157.636 43.6334H157.723C157.636 41.9304 157.595 40.3177 157.595 38.787V25.2616H159.011V45.9847H159.015Z" fill="white"/>
<path d="M179 45.9847H177.211L169.186 35.0405L166.395 37.478V45.9847H164.937V25.2616H166.395V36.0335L168.714 33.7355L176.909 25.2575H178.768L170.2 34.0187L179 45.9847Z" fill="white"/>
</svg>
