<svg width="120" height="39" viewBox="0 0 120 39" fill="none" xmlns="http://www.w3.org/2000/svg">
<path d="M65.2163 25.2118C65.2163 25.8547 65.1663 26.4976 65.0692 27.1405H46.0334C46.4554 28.4953 47.2327 29.5853 48.3709 30.4075C49.5063 31.2298 50.7889 31.6409 52.2158 31.6409C54.1952 31.6409 55.8331 30.8821 57.1323 29.3673L61.1243 34.6403C58.6258 36.9967 55.6554 38.1722 52.2158 38.1722C48.5486 38.1722 45.456 36.925 42.9408 34.4306C40.4257 31.9362 39.1681 28.8678 39.1681 25.2283C39.1681 21.5888 40.434 18.5701 42.9658 16.0757C45.4976 13.5813 48.5791 12.3313 52.2158 12.3313C55.8525 12.3313 58.9256 13.5785 61.4408 16.0702C63.956 18.5618 65.2135 21.6081 65.2135 25.209L65.2163 25.2118ZM57.8652 22.2538C56.6631 19.9967 54.7809 18.8654 52.2186 18.8654C49.6562 18.8654 47.7241 19.9939 46.522 22.2538H57.8652Z" fill="#4D7CFF"/>
<path d="M41.2779 34.4306C40.1092 33.2717 39.2153 31.9858 38.5879 30.5786C37.4885 31.4699 36.1838 31.9169 34.6764 31.9169C32.8913 31.9169 31.3672 31.2905 30.1013 30.0378C28.8354 28.7851 28.2025 27.273 28.2025 25.507C28.2025 23.7411 28.8354 22.2372 30.1013 21.0011C31.3672 19.7649 32.8913 19.144 34.6764 19.144C36.1033 19.144 37.3525 19.5331 38.4269 20.314C39.0598 18.7605 40.0176 17.3477 41.3029 16.0812C41.6472 15.7418 42.0025 15.4273 42.3689 15.1348C40.1258 13.4544 37.5607 12.6155 34.6791 12.6155C31.0452 12.6155 27.9609 13.8627 25.4291 16.3599C22.8973 18.8543 21.6314 21.9061 21.6314 25.5125C21.6314 29.1189 22.889 32.2176 25.4042 34.7148C27.9193 37.2092 31.0091 38.4564 34.6791 38.4564C37.719 38.4564 40.3951 37.5293 42.716 35.6778C42.219 35.3053 41.7415 34.8942 41.2807 34.4389L41.2779 34.4306Z" fill="#4D7CFF"/>
<path d="M19.9658 25.2283C19.9658 21.6219 21.2317 18.5701 23.7635 16.0757C24.4797 15.3693 25.2431 14.7678 26.0454 14.2601V0H19.4744V14.8064C17.495 13.711 15.3519 13.1619 13.0477 13.1619C9.41378 13.1619 6.32952 14.4091 3.79771 16.9063C1.2659 19.4007 0 22.4497 0 26.0561C0 29.6625 1.25758 32.7612 3.77273 35.2584C6.28788 37.7528 9.37769 39 13.0477 39C16.7177 39 19.7576 37.7445 22.2727 35.2308C22.6614 34.8417 23.0167 34.4389 23.3471 34.0222C21.0929 31.6023 19.9658 28.6719 19.9658 25.2283ZM17.6005 30.5869C16.3513 31.8396 14.8327 32.466 13.0477 32.466C11.2627 32.466 9.73858 31.8396 8.47268 30.5869C7.20677 29.3342 6.57382 27.8221 6.57382 26.0561C6.57382 24.2902 7.20677 22.7863 8.47268 21.5502C9.73858 20.314 11.2627 19.6932 13.0477 19.6932C14.8327 19.6932 16.3096 20.3195 17.5755 21.5722C18.8414 22.825 19.4744 24.3205 19.4744 26.0561C19.4744 27.7917 18.8498 29.3342 17.6005 30.5869Z" fill="#4D7CFF"/>
<path d="M67.3206 36.9719C69.0071 36.9719 70.3743 35.613 70.3743 33.9367C70.3743 32.2604 69.0071 30.9014 67.3206 30.9014C65.6341 30.9014 64.2669 32.2604 64.2669 33.9367C64.2669 35.613 65.6341 36.9719 67.3206 36.9719Z" fill="#54CEEA"/>
<path d="M72.3065 16.9835H76.1514C77.8837 16.9835 79.1551 17.276 79.9685 17.861C80.7819 18.4459 81.1872 19.3289 81.1872 20.5099C81.1872 21.3156 80.9402 21.9889 80.4432 22.527C79.9491 23.065 79.2245 23.4099 78.2723 23.5617V23.6196C79.3911 23.7852 80.2156 24.1356 80.7431 24.6737C81.2705 25.2118 81.5343 25.9595 81.5343 26.9198C81.5343 28.2028 81.1067 29.1907 80.2489 29.8833C79.3911 30.5758 78.1779 30.9235 76.6039 30.9235H72.3065V16.9835ZM73.2837 23.1892H76.3707C77.6866 23.1892 78.6443 22.9712 79.244 22.5352C79.8408 22.0993 80.1407 21.4177 80.1407 20.4906C80.1407 19.5635 79.802 18.8902 79.1302 18.4708C78.4556 18.0514 77.4506 17.8417 76.1153 17.8417H73.2864V23.1892H73.2837ZM73.2837 24.0473V30.0626H76.5817C79.1773 30.0626 80.4766 29.0141 80.4766 26.917C80.4766 25.0048 79.1079 24.0473 76.3707 24.0473H73.2837Z" fill="#4D7CFF"/>
<path d="M85.6762 26.0009L83.7191 30.9208H82.6364L88.2747 16.9283H88.8993L94.4237 30.9208H93.3216L91.3756 26.0009H85.6762ZM86.0316 25.1235H91.048L89.1408 20.0988C88.9798 19.7042 88.7882 19.1578 88.5661 18.4597C88.394 19.0695 88.2052 19.6214 87.9998 20.1181L86.0343 25.1235H86.0316Z" fill="#4D7CFF"/>
<path d="M106.603 30.9208H105.614L97.3081 18.548H97.2304C97.3081 20.0215 97.347 21.1335 97.347 21.884V30.9208H96.4059V16.9863H97.3831L105.678 29.3397H105.736C105.678 28.1946 105.65 27.1102 105.65 26.0809V16.9863H106.6V30.9208H106.603Z" fill="#4D7CFF"/>
<path d="M120 30.9208H118.801L113.421 23.5617L111.55 25.2007V30.9208H110.572V16.9863H111.55V24.2294L113.104 22.6842L118.598 16.9835H119.845L114.101 22.8746L120 30.9208Z" fill="#4D7CFF"/>
</svg>
